<mxfile host="app.diagrams.net" agent="Mozilla/5.0 (Windows NT 10.0; Win64; x64) AppleWebKit/537.36 (KHTML, like Gecko) Chrome/129.0.0.0 Safari/537.36" version="24.7.16">
  <diagram name="Page-1" id="Jx7h1y-_uB3Diron5HDH">
    <mxGraphModel dx="1050" dy="557" grid="1" gridSize="10" guides="1" tooltips="1" connect="1" arrows="1" fold="1" page="1" pageScale="1" pageWidth="850" pageHeight="1100" math="0" shadow="0">
      <root>
        <mxCell id="0" />
        <mxCell id="1" parent="0" />
        <mxCell id="SPfszQ5DqtnPvlmahElU-7" style="edgeStyle=orthogonalEdgeStyle;rounded=0;orthogonalLoop=1;jettySize=auto;html=1;" parent="1" source="SPfszQ5DqtnPvlmahElU-1" target="SPfszQ5DqtnPvlmahElU-4" edge="1">
          <mxGeometry relative="1" as="geometry" />
        </mxCell>
        <mxCell id="SPfszQ5DqtnPvlmahElU-1" value="Amazon S3" style="sketch=0;outlineConnect=0;fontColor=#232F3E;gradientColor=none;strokeColor=#ffffff;fillColor=#232F3E;dashed=0;verticalLabelPosition=middle;verticalAlign=bottom;align=center;html=1;whiteSpace=wrap;fontSize=10;fontStyle=1;spacing=3;shape=mxgraph.aws4.productIcon;prIcon=mxgraph.aws4.s3;" parent="1" vertex="1">
          <mxGeometry x="60" y="200" width="80" height="100" as="geometry" />
        </mxCell>
        <mxCell id="SPfszQ5DqtnPvlmahElU-14" style="edgeStyle=orthogonalEdgeStyle;rounded=0;orthogonalLoop=1;jettySize=auto;html=1;entryX=0;entryY=0.5;entryDx=0;entryDy=0;" parent="1" source="SPfszQ5DqtnPvlmahElU-4" target="SPfszQ5DqtnPvlmahElU-13" edge="1">
          <mxGeometry relative="1" as="geometry" />
        </mxCell>
        <mxCell id="SPfszQ5DqtnPvlmahElU-4" value="Bronze Layer" style="shape=datastore;whiteSpace=wrap;html=1;" parent="1" vertex="1">
          <mxGeometry x="280" y="205" width="90" height="90" as="geometry" />
        </mxCell>
        <mxCell id="SPfszQ5DqtnPvlmahElU-10" value="&lt;b&gt;&lt;font style=&quot;font-size: 18px;&quot;&gt;Delta Lake&lt;/font&gt;&lt;/b&gt;" style="rounded=1;whiteSpace=wrap;html=1;" parent="1" vertex="1">
          <mxGeometry x="260" y="310" width="590" height="60" as="geometry" />
        </mxCell>
        <mxCell id="SPfszQ5DqtnPvlmahElU-11" value="Ingestion&lt;div&gt;&lt;br&gt;&lt;/div&gt;" style="text;html=1;align=center;verticalAlign=middle;resizable=0;points=[];autosize=1;strokeColor=none;fillColor=none;" parent="1" vertex="1">
          <mxGeometry x="155" y="213" width="70" height="40" as="geometry" />
        </mxCell>
        <mxCell id="SPfszQ5DqtnPvlmahElU-18" style="edgeStyle=orthogonalEdgeStyle;rounded=0;orthogonalLoop=1;jettySize=auto;html=1;" parent="1" source="SPfszQ5DqtnPvlmahElU-13" target="SPfszQ5DqtnPvlmahElU-17" edge="1">
          <mxGeometry relative="1" as="geometry" />
        </mxCell>
        <mxCell id="SPfszQ5DqtnPvlmahElU-13" value="Silver Layer" style="shape=datastore;whiteSpace=wrap;html=1;" parent="1" vertex="1">
          <mxGeometry x="510" y="205" width="90" height="90" as="geometry" />
        </mxCell>
        <mxCell id="SPfszQ5DqtnPvlmahElU-15" value="Enrichment&lt;div&gt;&lt;br&gt;&lt;/div&gt;" style="text;html=1;align=center;verticalAlign=middle;resizable=0;points=[];autosize=1;strokeColor=none;fillColor=none;" parent="1" vertex="1">
          <mxGeometry x="380" y="213" width="80" height="40" as="geometry" />
        </mxCell>
        <mxCell id="SPfszQ5DqtnPvlmahElU-24" style="edgeStyle=orthogonalEdgeStyle;rounded=0;orthogonalLoop=1;jettySize=auto;html=1;exitX=1;exitY=0.5;exitDx=0;exitDy=0;" parent="1" source="SPfszQ5DqtnPvlmahElU-17" target="SPfszQ5DqtnPvlmahElU-25" edge="1">
          <mxGeometry relative="1" as="geometry">
            <mxPoint x="920" y="100" as="targetPoint" />
          </mxGeometry>
        </mxCell>
        <mxCell id="SPfszQ5DqtnPvlmahElU-17" value="Gold&amp;nbsp;&lt;span style=&quot;background-color: initial;&quot;&gt;Layer&lt;/span&gt;" style="shape=datastore;whiteSpace=wrap;html=1;" parent="1" vertex="1">
          <mxGeometry x="740" y="205" width="90" height="90" as="geometry" />
        </mxCell>
        <mxCell id="SPfszQ5DqtnPvlmahElU-20" value="&lt;b&gt;&lt;font style=&quot;font-size: 18px;&quot;&gt;Data Lake&lt;/font&gt;&lt;/b&gt;&lt;div&gt;&lt;br&gt;&lt;/div&gt;" style="rounded=1;whiteSpace=wrap;html=1;" parent="1" vertex="1">
          <mxGeometry x="50" y="310" width="120" height="60" as="geometry" />
        </mxCell>
        <mxCell id="SPfszQ5DqtnPvlmahElU-21" value="Aggregation" style="text;html=1;align=center;verticalAlign=middle;resizable=0;points=[];autosize=1;strokeColor=none;fillColor=none;" parent="1" vertex="1">
          <mxGeometry x="615" y="218" width="90" height="30" as="geometry" />
        </mxCell>
        <mxCell id="SPfszQ5DqtnPvlmahElU-22" value="" style="image;aspect=fixed;html=1;points=[];align=center;fontSize=12;image=img/lib/azure2/analytics/Azure_Databricks.svg;" parent="1" vertex="1">
          <mxGeometry x="440" y="310" width="55.41" height="60" as="geometry" />
        </mxCell>
        <mxCell id="SPfszQ5DqtnPvlmahElU-25" value="" style="sketch=0;outlineConnect=0;fontColor=#232F3E;gradientColor=none;fillColor=#8C4FFF;strokeColor=none;dashed=0;verticalLabelPosition=bottom;verticalAlign=top;align=center;html=1;fontSize=12;fontStyle=0;aspect=fixed;pointerEvents=1;shape=mxgraph.aws4.quicksight_paginated_reports;" parent="1" vertex="1">
          <mxGeometry x="1130" y="211" width="62" height="78" as="geometry" />
        </mxCell>
        <mxCell id="SPfszQ5DqtnPvlmahElU-29" value="&lt;b&gt;&lt;font style=&quot;font-size: 18px;&quot;&gt;Profit Reports&lt;/font&gt;&lt;/b&gt;" style="rounded=1;whiteSpace=wrap;html=1;" parent="1" vertex="1">
          <mxGeometry x="1050" y="310" width="230" height="60" as="geometry" />
        </mxCell>
        <mxCell id="SPfszQ5DqtnPvlmahElU-30" value="SQL" style="text;html=1;align=center;verticalAlign=middle;resizable=0;points=[];autosize=1;strokeColor=none;fillColor=none;" parent="1" vertex="1">
          <mxGeometry x="975" y="218" width="50" height="30" as="geometry" />
        </mxCell>
        <mxCell id="SPfszQ5DqtnPvlmahElU-31" value="1. Product Raw Data&lt;div&gt;2. Customer Raw Data&lt;/div&gt;&lt;div&gt;3. Orders Raw Data&lt;/div&gt;" style="text;html=1;align=center;verticalAlign=middle;resizable=0;points=[];autosize=1;strokeColor=none;fillColor=none;" parent="1" vertex="1">
          <mxGeometry x="250" y="123" width="140" height="60" as="geometry" />
        </mxCell>
        <mxCell id="SPfszQ5DqtnPvlmahElU-32" value="1. Product enriched data&lt;div&gt;2. Customer enriched data&lt;/div&gt;&lt;div&gt;3. Orders enriched data&lt;/div&gt;" style="text;html=1;align=center;verticalAlign=middle;resizable=0;points=[];autosize=1;strokeColor=none;fillColor=none;" parent="1" vertex="1">
          <mxGeometry x="470" y="123" width="160" height="60" as="geometry" />
        </mxCell>
        <mxCell id="SPfszQ5DqtnPvlmahElU-33" value="Aggragated Profit data" style="text;html=1;align=center;verticalAlign=middle;resizable=0;points=[];autosize=1;strokeColor=none;fillColor=none;" parent="1" vertex="1">
          <mxGeometry x="710" y="138" width="140" height="30" as="geometry" />
        </mxCell>
      </root>
    </mxGraphModel>
  </diagram>
</mxfile>
